<?xml version="1.0" encoding="utf-8"?>
<!-- Generator: Adobe Illustrator 22.0.1, SVG Export Plug-In . SVG Version: 6.00 Build 0)  -->
<svg version="1.1" id="Layer_1" xmlns="http://www.w3.org/2000/svg" xmlns:xlink="http://www.w3.org/1999/xlink" x="0px" y="0px"
	 viewBox="0 0 150 150" style="enable-background:new 0 0 150 150;" xml:space="preserve">
<style type="text/css">
	.st0{display:none;}
	.st1{display:inline;}
	.st2{fill:#231F20;}
	.st3{display:inline;fill:#231F20;}
</style>
<g class="st0">
	<g class="st1">
		<path class="st2" d="M45.7,95.6L45.7,95.6L45.7,95.6 M45.7,95.6l4.7,4.7l4.7,4.6l-3.2,3.2l-2.7-2.7l-2-2l-2-2l-2.7-2.6L45.7,95.6
			 M45.7,91.6c-1,0-2,0.4-2.8,1.2L39.6,96c-1.6,1.6-1.6,4.1,0,5.6l2.7,2.7l2,2l2,2L49,111c0.8,0.8,1.8,1.2,2.8,1.2
			c1,0,2-0.4,2.8-1.2l3.2-3.2c1.6-1.6,1.6-4.1,0-5.6l-4.7-4.7l-4.7-4.7C47.7,92,46.7,91.6,45.7,91.6L45.7,91.6z"/>
	</g>
	<g class="st1">
		<path class="st2" d="M112.6,46.1L112.6,46.1L112.6,46.1 M95.6,46.9L78.3,64.2c-2,0.1-3.9,0.9-5.3,2.3c-1.7,1.7-2.5,4.1-2.3,6.5
			c0.3,2.4,1.6,4.5,3.7,5.8c1.2,0.8,2.7,1.2,4.1,1.2c1.5,0,2.9-0.4,4.2-1.2c2.3-1.4,3.6-3.9,3.7-6.5L103.7,55L89.5,86.6
			c-1.1,2.5-3.2,4.4-5.8,5.2l-18.4,6c-0.2,0.1-0.5,0.1-0.8,0.1c-0.7,0-1.3-0.3-1.7-0.7l-4.7-4.7l-4.7-4.7c-0.7-0.7-0.9-1.6-0.6-2.5
			l6-18.4c0.8-2.6,2.7-4.7,5.2-5.8L95.6,46.9 M106.1,38c-0.3,0-0.6,0.1-0.9,0.2L62.4,57.4C58.8,59,56.2,62,55,65.7l-6,18.4
			c-0.7,2.3-0.1,4.8,1.6,6.5l4.7,4.7L60,100c1.2,1.2,2.9,1.9,4.6,1.9c0.7,0,1.3-0.1,2-0.3l18.4-6c3.7-1.2,6.7-3.9,8.3-7.4l19.2-42.9
			c0.2-0.5,0.2-0.9,0.1-1.4c-0.2-0.8-0.9-1.2-1.6-1.2c-0.4,0-0.9,0.2-1.2,0.5L83.1,69.9c-0.5,0.5-0.8,1.2-0.8,1.9
			c0.1,1.4-0.5,2.8-1.8,3.6c-0.6,0.4-1.3,0.6-2,0.6c-0.7,0-1.4-0.2-2-0.6c-2.2-1.4-2.5-4.3-0.7-6.1c0.8-0.8,1.7-1.1,2.7-1.1
			c0.1,0,0.2,0,0.3,0c0.1,0,0.1,0,0.2,0c0.6,0,1.2-0.3,1.7-0.8l26.6-26.6c0.9-0.9,0.5-2.5-0.7-2.8C106.4,38,106.3,38,106.1,38
			L106.1,38z"/>
	</g>
</g>
<g class="st0">
	<g class="st1">
		<path class="st2" d="M75.7,46C91.8,46,105,59.2,105,75.4s-13.2,29.3-29.3,29.3S46.3,91.5,46.3,75.4S59.5,46,75.7,46 M75.7,42
			C57.3,42,42.3,57,42.3,75.4s14.9,33.3,33.3,33.3S109,93.8,109,75.4S94.1,42,75.7,42L75.7,42z"/>
	</g>
	<g class="st1">
		<path class="st2" d="M75,96.5c-5.5,0-10.7-2.1-14.7-6c-4-3.9-6.3-9.2-6.4-14.8C53.8,64,63.1,54.5,74.7,54.3c5.6-0.1,11,2,15,6
			c0.4,0.4,0.6,0.8,0.6,1.3l0.2,4.3c0,1.1-0.8,2-1.9,2.1c-1.1,0.1-2-0.8-2.1-1.9l-0.1-3.5c-3.2-2.8-7.3-4.4-11.6-4.3
			c-9.4,0.1-17,7.9-16.9,17.3c0.1,4.6,1.9,8.8,5.2,12c3.3,3.2,7.6,4.9,12.1,4.8c4.2-0.1,8.2-1.6,11.3-4.4v-4.3c0-1.1,0.9-2,2-2
			s2,0.9,2,2v5.1c0,0.5-0.2,1-0.6,1.4c-3.9,3.9-9.1,6.1-14.6,6.2C75.2,96.5,75.1,96.5,75,96.5z"/>
	</g>
</g>
<g class="st0">
	<g class="st1">
		<path class="st2" d="M82.4,102.2H69.5c-4.4,0-8-3.6-8-8c0-5.4-2.8-10.3-5.5-14.3c-2.9-4.3-6.2-10.2-6-17.4
			c0.4-13.2,11.1-24.2,24.3-25.1c1.1-0.1,2.2-0.1,3.4,0c13.2,0.8,23.8,11.8,24.3,25.1l0,0c0.2,7.2-3.1,13.1-6,17.4
			c-2.7,4-5.5,8.9-5.5,14.3C90.5,98.6,86.9,102.2,82.4,102.2z M76,41.3c-0.5,0-0.9,0-1.4,0C63.4,42,54.4,51.3,54,62.5
			c-0.2,6.1,2.7,11.2,5.3,15c3.1,4.5,6.2,10.1,6.2,16.5c0,2.3,1.8,4.1,4,4.1h12.9c2.2,0,4-1.8,4-4c0-6.5,3.1-12,6.2-16.6
			c2.6-3.8,5.5-9,5.3-15C97.6,51.3,88.6,42,77.4,41.3C76.9,41.3,76.5,41.3,76,41.3z"/>
	</g>
	<g class="st1">
		<path class="st2" d="M84.3,113.5H67.7c-2.9,0-5.3-2.4-5.3-5.3s2.4-5.3,5.3-5.3h16.6c2.9,0,5.3,2.4,5.3,5.3S87.2,113.5,84.3,113.5z
			 M67.7,106.9c-0.7,0-1.3,0.6-1.3,1.3s0.6,1.3,1.3,1.3h16.6c0.7,0,1.3-0.6,1.3-1.3s-0.6-1.3-1.3-1.3H67.7z"/>
	</g>
	<g class="st1">
		<path class="st2" d="M72.4,88.9c-0.8,0-1.5-0.7-1.5-1.5c-0.1-7.2-0.6-11.2-1.3-14.6c-1.2,0.1-2.5-0.1-3.6-0.7
			c-2.7-1.3-4.5-3.5-4.8-5.8c-0.2-1.6,0.4-3.1,1.6-4.2c1.2-1,2.8-1.3,4.2-0.8c2.2,0.8,3.9,3.2,4.6,6.7c0.1,0.4,0.2,0.8,0.2,1.2
			c0.4-0.2,0.9-0.4,1.3-0.6c-0.5-0.6-1-1.3-1.4-2.1c-1.5-3-1.4-7.2,0.2-9.7c0.9-1.4,2.1-2.2,3.6-2.2s2.7,0.8,3.6,2.2
			c1.6,2.5,1.7,6.7,0.2,9.7c-0.4,0.7-0.8,1.4-1.4,2.1c0.4,0.3,0.9,0.5,1.3,0.7c0.1-0.4,0.2-0.8,0.2-1.2c0.7-3.5,2.4-5.9,4.6-6.7
			c1.5-0.5,3-0.2,4.2,0.8c1.2,1,1.8,2.6,1.6,4.2c-0.3,2.3-2.1,4.5-4.8,5.8c-1,0.5-2.2,0.7-3.6,0.6c-0.7,3.4-1.2,7.3-1.3,14.6
			c0,0.8-0.7,1.5-1.5,1.5c-0.8,0-1.5-0.7-1.5-1.5c0.1-7.5,0.6-11.6,1.3-15.1c-1.1-0.4-2.2-0.9-3.2-1.6c-0.9,0.6-2,1.2-3,1.5
			c0.7,3.5,1.3,7.6,1.3,15.2C74,88.2,73.3,88.9,72.4,88.9C72.4,88.9,72.4,88.9,72.4,88.9z M65.7,64.1c-0.2,0-0.5,0.1-0.9,0.4
			c-0.4,0.4-0.6,0.8-0.5,1.5c0.1,1,1,2.5,3.1,3.5c0.5,0.2,1,0.4,1.6,0.4c-0.1-0.4-0.2-0.8-0.2-1.2c-0.6-2.8-1.8-4.1-2.7-4.4
			C66,64.2,65.9,64.1,65.7,64.1z M85.7,64.1c-0.2,0-0.3,0-0.4,0.1c-0.9,0.3-2.1,1.6-2.7,4.4c-0.1,0.4-0.2,0.8-0.2,1.2
			c0.6,0,1.1-0.1,1.6-0.4c2.1-1,3-2.5,3.1-3.5c0.1-0.6-0.1-1.1-0.5-1.5C86.3,64.2,86,64.1,85.7,64.1z M75.7,57.6
			c-0.4,0-0.7,0.2-1,0.7c-0.9,1.5-1.2,4.5-0.1,6.8c0.3,0.5,0.6,1,1.1,1.5c0.4-0.5,0.8-1,1.1-1.5c1.1-2.3,0.8-5.3-0.1-6.8
			C76.4,57.9,76.1,57.6,75.7,57.6z"/>
	</g>
</g>
<g>
	<path class="st2" d="M66.7,104.6c-2.1,0-4.3-0.3-6.4-1.2c-5.2-2.1-9.1-7.3-10.2-13.5c-0.9-5-0.1-10.5,2.3-16.4
		c3.3-8.1,8.7-15.1,15.6-20.3c6.6-4.9,13.5-6.9,19.4-5.5c4,0.9,7.6,3.9,9.5,7.7c1.5,3.2,1.7,6.5,0.3,9.4c-0.5,1-1.7,1.4-2.7,1
		c-1-0.5-1.4-1.7-1-2.7c0.8-1.8,0.7-3.9-0.3-6c-1.3-2.7-4-4.9-6.8-5.6C80,50,73.6,53.9,70.3,56.3C63.9,61.1,59,67.6,56,75
		c-2.1,5.2-2.8,10-2,14.2c0.9,4.9,3.9,8.9,7.8,10.5c3.4,1.4,7.1,0.9,9.6,0.3c2-0.5,4-1.4,5.8-2.4c-1.4-1.2-2.6-2.6-3.4-4.2
		c-3.5-6.4-1.3-13.9,1.8-18.8c1.8-2.8,3.8-4.7,6.1-5.7c3.2-1.4,6.8-0.8,9,1.4c1.7,1.7,2.4,4.1,2.3,7.5c-0.2,7.3-3.5,14.3-8.8,19.3
		c0.9,0.3,1.8,0.6,2.8,0.8c4.3,0.9,8.8,0.6,13.2,0.2c1.1-0.1,2.1,0.7,2.1,1.8c0.1,1.1-0.7,2.1-1.8,2.1c-4.7,0.4-9.5,0.7-14.3-0.3
		c-1.9-0.4-3.8-1.1-5.4-1.9c-2.5,1.8-5.4,3.1-8.4,3.9C70.8,104.3,68.8,104.6,66.7,104.6z M85.3,72.2c-0.7,0-1.4,0.2-2,0.4
		c-1.5,0.7-3,2-4.3,4.2c-2.4,3.8-4.3,9.8-1.7,14.7c0.8,1.4,1.9,2.6,3.3,3.7c5-4.3,8.3-10.8,8.5-17.4c0-2.2-0.3-3.7-1.2-4.6
		C87.1,72.5,86.2,72.2,85.3,72.2z"/>
</g>
<g class="st0">
	<g class="st1">
		<path class="st2" d="M73.2,112.7c-7.5,0-15.6-1.3-20.6-4.6c-3.1-2-4.8-4.6-5.2-7.7c-0.6-5.1,0.8-9.8,3.7-13.1
			c-1.7-2.7-4.5-8.7-0.7-13.9c1.8-2.5,4.1-4.5,6.4-6.4c1.3-1.1,2.4-2.1,3.5-3.2c3.5-3.5,5-9.1,3.7-13.9c-0.2-0.6-0.3-1.1-0.5-1.7
			c-0.4-1.1-0.7-2.3-0.9-3.5c-0.4-2.6,0.4-5.1,2.1-6.5c2.1-1.8,5.4-1.9,8.7-0.2c4.9,2.4,8.5,7.1,9.7,12.4c1.2,5-0.6,12.3-4,16.8
			c-0.7,0.9-1.9,1-2.8,0.4c-0.9-0.7-1-1.9-0.4-2.8c2.7-3.6,4.2-9.6,3.3-13.5c-1-4.2-3.8-7.8-7.6-9.7c-1.4-0.7-3.3-1.2-4.3-0.3
			c-0.7,0.6-0.9,1.9-0.7,2.9c0.1,0.9,0.4,1.8,0.8,2.8c0.2,0.6,0.4,1.2,0.6,1.9c1.7,6.2-0.2,13.2-4.8,17.8c-1.2,1.2-2.5,2.3-3.8,3.4
			c-2.1,1.8-4.2,3.6-5.7,5.7c-3.2,4.4,1.6,10.5,1.7,10.6c0.7,0.9,0.6,2.1-0.3,2.8c-2.8,2.3-4.1,6.4-3.6,10.8
			c0.2,1.9,1.3,3.5,3.4,4.9c7.2,4.8,23,4.7,30.3,2.5l1-0.3c6.3-1.8,10.7-3.5,10.7-7.6c0-1.4-0.6-2.7-1.9-3.9
			c-2.8-2.7-8.1-4.4-13.3-4.2c-5.1,0.2-7.8,1.2-7.9,3c-0.1,1.1,0.2,2,0.9,2.7c1.8,1.8,5.8,2.3,8.7,2.1c1.1-0.1,2.1,0.8,2.1,1.9
			c0.1,1.1-0.8,2.1-1.9,2.1c-1.9,0.1-8.3,0.2-11.8-3.2c-1.5-1.5-2.2-3.5-2.1-5.8c0.4-6.3,8.9-6.6,11.7-6.7
			c6.2-0.2,12.6,1.9,16.2,5.4c2,2,3.1,4.3,3.1,6.8c0,7.4-7.9,9.7-13.6,11.4l-0.9,0.3C83,112.1,78.2,112.7,73.2,112.7z"/>
	</g>
	<g class="st1">
		<path class="st2" d="M94.9,81.3c-0.9,0-1.7-0.6-1.9-1.5c-0.3-1.1,0.4-2.2,1.5-2.4c1.8-0.5,4.8-1.7,4.4-5.1
			c-0.4-4-7.1-4.3-15.1-4.3c-4.4,0-8.2,0.7-10.8,1.9c-2.1,1-2.9,2.2-2.9,2.9c0,2,2.5,3.2,3,3.3c1.1,0.1,1.9,1.1,1.7,2.2
			s-1.1,1.9-2.2,1.8c-1.9-0.2-6.5-2.7-6.5-7.3c0-1.5,0.7-4.3,5.1-6.5c3.2-1.5,7.5-2.3,12.5-2.3c8.1,0,18.2,0,19.1,7.8
			c0.6,5.4-3.4,8.4-7.4,9.4C95.3,81.3,95.1,81.3,94.9,81.3z"/>
	</g>
	<g class="st1">
		<path class="st2" d="M95.9,95.7c-1.1,0-2-0.9-2-2s0.9-2,2-2c0.7,0,2.9-1.3,2.9-5.2c0.1-4.5-5.1-6.1-13.9-7.3
			c-5.9-0.8-13,0.3-14.2,3.3c-0.8,2-0.5,2.9,0.3,3.8c1.5,1.7,4.9,1.5,6.2,1.4c1.1-0.1,2.1,0.7,2.2,1.8c0.1,1.1-0.7,2.1-1.8,2.2
			c-2.4,0.3-6.9,0.3-9.6-2.7c-2.7-2.9-1.9-6-1.1-8c2.5-6.2,13.1-6.5,18.4-5.7c6.5,0.9,17.5,2.4,17.4,11.3
			C102.8,92.8,98.7,95.7,95.9,95.7z"/>
	</g>
</g>
<g class="st0">
	<g class="st1">
		<path class="st2" d="M85.8,107.1c-0.4,0-0.8-0.1-1.2-0.4c-0.5-0.4-0.8-1-0.8-1.6V52.7c0-0.9,0.6-1.6,1.4-1.9L99.8,46
			c2.3-0.7,4.7-0.4,6.7,1c1.9,1.4,3.1,3.6,3.1,6V92c0,4.5-2.9,8.4-7.1,9.8L86.4,107C86.2,107,86,107.1,85.8,107.1z M87.8,54.1v48.2
			l13.3-4.4c2.6-0.8,4.3-3.3,4.3-6V53c0-1.1-0.5-2.1-1.4-2.8c-0.9-0.6-2-0.8-3.1-0.5l0,0L87.8,54.1z M100.4,47.9L100.4,47.9
			L100.4,47.9z"/>
	</g>
	<g class="st1">
		<g>
			<path class="st2" d="M48.1,105.1c-1.5,0-3-0.5-4.3-1.4c-1.9-1.4-3.1-3.6-3.1-6V58.8c0-4.5,2.9-8.4,7.1-9.8l15.9-5.2
				c0.6-0.2,1.3-0.1,1.8,0.3c0.5,0.4,0.8,1,0.8,1.6v52.4c0,0.9-0.6,1.6-1.4,1.9l-14.6,4.8C49.7,105,48.9,105.1,48.1,105.1z
				 M62.4,48.4l-13.3,4.4c-2.6,0.8-4.3,3.3-4.3,6v38.9c0,1.1,0.5,2.1,1.4,2.8c0.9,0.6,2,0.8,3.1,0.5l0,0l13.2-4.3V48.4z"/>
		</g>
		<g>
			<path class="st2" d="M85.8,107.1c-0.2,0-0.4,0-0.6-0.1l-10.3-3.4c-0.1,0-0.2,0-0.2-0.1L63.8,100c-0.8-0.3-1.4-1-1.4-1.9V45.7
				c0-0.6,0.3-1.2,0.8-1.6c0.5-0.4,1.2-0.5,1.8-0.3l10.3,3.4c0.1,0,0.2,0,0.3,0.1l10.8,3.5c0.8,0.3,1.4,1,1.4,1.9v52.4
				c0,0.6-0.3,1.2-0.8,1.6C86.7,106.9,86.2,107.1,85.8,107.1z M75.6,99.6c0.1,0,0.2,0,0.2,0.1l8,2.6V54.1l-9.2-3
				c-0.1,0-0.2,0-0.3-0.1l-8-2.6v48.2L75.6,99.6z"/>
		</g>
	</g>
</g>
<g class="st0">
	<g class="st1">
		<g>
			<path class="st2" d="M60.1,68.2H56c-2.5,0-4.6-2.1-4.6-4.6v-4.1c0-2.5,2.1-4.6,4.6-4.6h4.1c2.5,0,4.6,2.1,4.6,4.6v4.1
				C64.7,66.1,62.6,68.2,60.1,68.2z M56,58.9c-0.3,0-0.6,0.3-0.6,0.6v4.1c0,0.3,0.3,0.6,0.6,0.6h4.1c0.3,0,0.6-0.3,0.6-0.6v-4.1
				c0-0.3-0.3-0.6-0.6-0.6H56z"/>
		</g>
		<g>
			<path class="st2" d="M98,63.5H67.8c-1.1,0-2-0.9-2-2s0.9-2,2-2H98c1.1,0,2,0.9,2,2S99.1,63.5,98,63.5z"/>
		</g>
		<g>
			<path class="st2" d="M60.1,95.1H56c-2.5,0-4.6-2.1-4.6-4.6v-4.1c0-2.5,2.1-4.6,4.6-4.6h4.1c2.5,0,4.6,2.1,4.6,4.6v4.1
				C64.7,93.1,62.6,95.1,60.1,95.1z M56,85.8c-0.3,0-0.6,0.3-0.6,0.6v4.1c0,0.3,0.3,0.6,0.6,0.6h4.1c0.3,0,0.6-0.3,0.6-0.6v-4.1
				c0-0.3-0.3-0.6-0.6-0.6H56z"/>
		</g>
		<g>
			<path class="st2" d="M98,90.5H67.8c-1.1,0-2-0.9-2-2s0.9-2,2-2H98c1.1,0,2,0.9,2,2S99.1,90.5,98,90.5z"/>
		</g>
		<g>
			<path class="st2" d="M95.4,81.6h-4.1c-2.5,0-4.6-2.1-4.6-4.6V73c0-2.5,2.1-4.6,4.6-4.6h4.1c2.5,0,4.6,2.1,4.6,4.6V77
				C100,79.6,97.9,81.6,95.4,81.6z M91.3,72.4c-0.3,0-0.6,0.3-0.6,0.6V77c0,0.3,0.3,0.6,0.6,0.6h4.1c0.3,0,0.6-0.3,0.6-0.6V73
				c0-0.3-0.3-0.6-0.6-0.6H91.3z"/>
		</g>
		<g>
			<path class="st2" d="M83.6,77H53.4c-1.1,0-2-0.9-2-2s0.9-2,2-2h30.2c1.1,0,2,0.9,2,2S84.7,77,83.6,77z"/>
		</g>
	</g>
	<g class="st1">
		<path class="st2" d="M94,105.8H57.3c-6.9,0-12.5-5.6-12.5-12.5V56.7c0-6.9,5.6-12.5,12.5-12.5H94c6.9,0,12.5,5.6,12.5,12.5v36.7
			C106.5,100.2,100.9,105.8,94,105.8z M57.3,48.2c-4.7,0-8.5,3.8-8.5,8.5v36.7c0,4.7,3.8,8.5,8.5,8.5H94c4.7,0,8.5-3.8,8.5-8.5V56.7
			c0-4.7-3.8-8.5-8.5-8.5H57.3z"/>
	</g>
</g>
<g class="st0">
	<g class="st1">
		<path class="st2" d="M88.9,100.6H50.7c-1.1,0-2-0.9-2-2V60.4c0-1.1,0.9-2,2-2h38.3c1.1,0,2,0.9,2,2v38.3
			C90.9,99.8,90,100.6,88.9,100.6z M52.7,96.6h34.3V62.4H52.7V96.6z"/>
	</g>
	<g class="st1">
		<path class="st2" d="M88.9,62.4H50.7c-0.9,0-1.6-0.5-1.9-1.3c-0.3-0.8,0-1.7,0.6-2.2l11.4-9c0.4-0.3,0.8-0.4,1.2-0.4h38.3
			c0.9,0,1.6,0.5,1.9,1.3s0,1.7-0.7,2.2l-11.4,9C89.8,62.2,89.4,62.4,88.9,62.4z M56.4,58.4h31.8l6.4-5H62.8L56.4,58.4z"/>
	</g>
	<g class="st1">
		<path class="st2" d="M88.9,100.6c-0.3,0-0.6-0.1-0.9-0.2c-0.7-0.3-1.1-1-1.1-1.8V60.4c0-0.6,0.3-1.2,0.8-1.6l11.6-8.9
			c0.6-0.5,1.4-0.5,2.1-0.2c0.7,0.3,1.1,1,1.1,1.8v38.3c0,0.6-0.3,1.2-0.8,1.6l-11.6,8.9C89.8,100.5,89.4,100.6,88.9,100.6z
			 M90.9,61.4v33.2l7.6-5.8V55.5L90.9,61.4z"/>
	</g>
</g>
<g class="st0">
	<g class="st1">
		<path class="st2" d="M94.8,100.6H55.2c-8.1,0-14.7-6.6-14.7-14.7V64.1c0-8.1,6.6-14.7,14.7-14.7h39.6c8.1,0,14.7,6.6,14.7,14.7
			v21.9C109.5,94.1,102.9,100.6,94.8,100.6z M55.2,53.4c-5.9,0-10.7,4.8-10.7,10.7v21.9c0,5.9,4.8,10.7,10.7,10.7h39.6
			c5.9,0,10.7-4.8,10.7-10.7V64.1c0-5.9-4.8-10.7-10.7-10.7H55.2z"/>
	</g>
	<g class="st1">
		<path class="st2" d="M71.6,86.8c-1,0-2-0.3-3-0.8c-2-1.1-3.2-3.1-3.2-5.4V69.4c0-2.3,1.2-4.3,3.2-5.4c2-1.1,4.3-1,6.3,0.2l8.9,5.6
			c1.8,1.1,2.9,3.1,2.9,5.2s-1.1,4.1-2.9,5.2l-8.9,5.6C73.8,86.4,72.7,86.8,71.6,86.8z M71.6,67.2c-0.5,0-0.9,0.2-1.1,0.3
			c-0.3,0.2-1.1,0.7-1.1,1.9v11.2c0,1.2,0.8,1.7,1.1,1.9c0.3,0.2,1.2,0.6,2.2-0.1l8.9-5.6c0.6-0.4,1-1.1,1-1.8c0-0.8-0.4-1.4-1-1.8
			l0,0l-8.9-5.6C72.3,67.3,71.9,67.2,71.6,67.2z"/>
	</g>
</g>
<g class="st0">
	<path class="st3" d="M85.4,108.3c-1.7,0-3.3-0.9-4.2-2.5L73,91c-0.2-0.3-0.4-0.4-0.6-0.4c-0.1,0-0.4,0-0.7,0.2l-5.6,6
		c-1.3,1.4-3.2,1.8-5,1.2c-1.8-0.6-3-2.1-3.2-4l-5-46.4c-0.2-1.9,0.8-3.8,2.4-4.7c1.7-0.9,3.8-0.8,5.3,0.5l36.5,29.2
		c1.5,1.2,2.1,3,1.7,4.9c-0.5,1.8-1.9,3.2-3.7,3.5L87,82.5c-0.3,0.1-0.5,0.3-0.6,0.4c-0.1,0.1-0.1,0.4,0,0.7l8.2,14.9
		c1.3,2.3,0.4,5.2-1.9,6.5l-5,2.8C87,108.1,86.2,108.3,85.4,108.3z M72.3,86.6c0.2,0,0.4,0,0.6,0c1.5,0.2,2.8,1.1,3.6,2.4l8.2,14.9
		c0.2,0.4,0.7,0.5,1,0.3l5-2.8c0.4-0.2,0.5-0.7,0.3-1l-8.2-14.9c-0.7-1.4-0.8-2.9-0.1-4.3c0.7-1.4,1.9-2.4,3.4-2.7l8.1-1.6
		c0.4-0.1,0.6-0.4,0.6-0.6c0-0.2,0.1-0.5-0.3-0.8c0,0,0,0,0,0L58.2,46.5c-0.3-0.3-0.7-0.2-0.9-0.1c-0.2,0.1-0.4,0.3-0.4,0.8l5,46.4
		c0,0.4,0.3,0.6,0.5,0.6c0.2,0.1,0.5,0.1,0.8-0.2l5.6-6C69.8,87.1,71,86.6,72.3,86.6z"/>
</g>
</svg>
