<svg id="Layer_1" data-name="Layer 1" xmlns="http://www.w3.org/2000/svg" viewBox="0 0 175.1 125.61"><defs><style>.cls-1{fill:#fff;}</style></defs><title>sarah-ross-designs-icon</title><path class="cls-1" d="M79.82,75.72" transform="translate(-17.9 -25.9)"/><path class="cls-1" d="M105.87,151.52h-.21A24.72,24.72,0,0,1,81,126.83c0-10,7.24-17.38,8.35-18.46l6.78-6.77-3.84-3.84-2.89-2.82-.05-.05L59.85,65.4A23.15,23.15,0,0,1,92.58,32.67l13.08,13.08,13.1-13a23.15,23.15,0,0,1,32.72,32.74l-13,13,26.36,26.41a6.82,6.82,0,1,1-9.66,9.64l-26.35-26.4L122,94.89l-2.16,2.25-.1.1-4.36,4.36,6.78,6.77c1.12,1.08,8.35,8.5,8.35,18.46A24.72,24.72,0,0,1,105.87,151.52Zm-.11-40.28-6.84,6.83-.1.1c-1.14,1.13-4.2,5-4.2,8.67a11.06,11.06,0,0,0,11,11h.21a11.06,11.06,0,0,0,11-11c0-3.71-3.06-7.54-4.24-8.7l-.07-.07Zm-6.82-26L101.83,88l0,0L105.77,92l4.33-4.33,2.16-2.24.09-.09,6.83-6.83-5.9-5.91-.35-.28a6.88,6.88,0,0,1-.52-.47L105.63,65,92.16,78.42Zm22.87-23.3.35.29a6.8,6.8,0,0,1,.52.47l6.14,6.16,13-13a9.5,9.5,0,0,0-13.44-13.44l-13.08,13ZM76.22,39.54A9.5,9.5,0,0,0,69.5,55.76l13,13L96,55.37,82.94,42.32A9.47,9.47,0,0,0,76.22,39.54Z" transform="translate(-17.9 -25.9)"/><path class="cls-1" d="M51.4,116.52a6.82,6.82,0,0,1-4.83-11.64L63.71,87.7a6.82,6.82,0,0,1,9.66,9.64L56.22,114.52A6.8,6.8,0,0,1,51.4,116.52Z" transform="translate(-17.9 -25.9)"/><path class="cls-1" d="M186.17,85.34a6.8,6.8,0,0,1-2.52-.49l-22.1-8.79a6.82,6.82,0,0,1,5-12.68l22.1,8.79a6.82,6.82,0,0,1-2.52,13.16Z" transform="translate(-17.9 -25.9)"/><path class="cls-1" d="M24.73,85.34A6.82,6.82,0,0,1,22.2,72.18l22.1-8.79a6.82,6.82,0,0,1,5,12.68l-22.1,8.79A6.8,6.8,0,0,1,24.73,85.34Z" transform="translate(-17.9 -25.9)"/></svg>