<svg id="Layer_1" data-name="Layer 1" xmlns="http://www.w3.org/2000/svg" viewBox="0 0 292.25 29.94"><defs><style>.cls-1{fill:#fff;}</style></defs><title>SarahRossDesignsLogo</title><path class="cls-1" d="M218.76,41.56h-.11a6.37,6.37,0,0,1-4.88,2,7.27,7.27,0,0,1-2.85-.55,6.61,6.61,0,0,1-2.24-1.53,6.9,6.9,0,0,1-1.46-2.33,8.27,8.27,0,0,1-.52-3,8.41,8.41,0,0,1,.53-3,7.71,7.71,0,0,1,1.44-2.41,6.45,6.45,0,0,1,2.18-1.6A7.05,7.05,0,0,1,216,29a4.42,4.42,0,0,1,1.84,1.39H218V28.07q0-1.61,0-2.77a10.2,10.2,0,0,0-.12-1.51A1.19,1.19,0,0,0,217,23a6.57,6.57,0,0,0-2.14-.26v-.93l6.9-1.09v15.6q0,2,0,3.15a12,12,0,0,0,.15,1.68,2,2,0,0,0,.16.57.78.78,0,0,0,.33.34,1.55,1.55,0,0,0,.59.16,8.89,8.89,0,0,0,.94,0v1.06l-5.18.3Zm-.85-6.08a8,8,0,0,0-.22-1.92A5.2,5.2,0,0,0,217,32a3.31,3.31,0,0,0-1.25-1.2,3.41,3.41,0,0,0-1.64-.41,2.68,2.68,0,0,0-2.45,1.47,8.74,8.74,0,0,0-.85,4.28,9.14,9.14,0,0,0,.85,4.36A2.65,2.65,0,0,0,214.12,42a3.43,3.43,0,0,0,1.72-.46,3.84,3.84,0,0,0,1.34-1.25,4.33,4.33,0,0,0,.56-1.49,12,12,0,0,0,.18-2.28Z" transform="translate(-17.9 -20.46)"/><path class="cls-1" d="M238.74,40.77a7.92,7.92,0,0,1-6.19,2.81,8.45,8.45,0,0,1-3.07-.53,6.68,6.68,0,0,1-3.89-3.8,7.79,7.79,0,0,1-.55-3,8.12,8.12,0,0,1,.57-3.09,7.06,7.06,0,0,1,1.62-2.43,7.51,7.51,0,0,1,2.48-1.6,8.4,8.4,0,0,1,3.15-.57,6.21,6.21,0,0,1,4.5,1.55A5.78,5.78,0,0,1,239,34.5q0,.44-.14.53a1.74,1.74,0,0,1-.76.1h-8.78a2.5,2.5,0,0,0-.11.9,6.92,6.92,0,0,0,1.16,4.23,3.72,3.72,0,0,0,3.15,1.55,5.42,5.42,0,0,0,2.28-.52A8.74,8.74,0,0,0,238,39.82Zm-5.29-7.17a4.89,4.89,0,0,0,1.4-.12.56.56,0,0,0,.31-.59,2.84,2.84,0,0,0-.68-2,2.21,2.21,0,0,0-1.72-.76,2.8,2.8,0,0,0-2.09,1,4.73,4.73,0,0,0-1.19,2.47Z" transform="translate(-17.9 -20.46)"/><path class="cls-1" d="M242.29,43.31h-.85v-5h1.15a6.09,6.09,0,0,0,1.34,2.86,3,3,0,0,0,2.26.9,2.55,2.55,0,0,0,1.57-.42,1.37,1.37,0,0,0,.56-1.16,2.17,2.17,0,0,0-.68-1.49,8.83,8.83,0,0,0-2.21-1.54,9.88,9.88,0,0,1-3-2.22,3.85,3.85,0,0,1-.9-2.49,4.13,4.13,0,0,1,.34-1.68,4.25,4.25,0,0,1,.93-1.35,4.06,4.06,0,0,1,1.4-.89,4.91,4.91,0,0,1,1.77-.31,5.89,5.89,0,0,1,1.68.25,5,5,0,0,1,1.46.68l.49-.65h.71v4.12h-1.06a7,7,0,0,0-1.3-2.24,2.19,2.19,0,0,0-1.62-.68,1.73,1.73,0,0,0-1.21.41,1.4,1.4,0,0,0-.45,1.09,2,2,0,0,0,.67,1.44,9.22,9.22,0,0,0,2.22,1.5,18.15,18.15,0,0,1,1.88,1.17,7.09,7.09,0,0,1,1.28,1.16,4.08,4.08,0,0,1,.72,1.23,4.28,4.28,0,0,1-.12,3.09,3.73,3.73,0,0,1-1,1.31,4.7,4.7,0,0,1-1.57.85,6.48,6.48,0,0,1-2,.3,7.32,7.32,0,0,1-2.18-.31,4.31,4.31,0,0,1-1.66-.91Z" transform="translate(-17.9 -20.46)"/><path class="cls-1" d="M259.68,38.83a14.74,14.74,0,0,0,.08,1.74,2.27,2.27,0,0,0,.33,1,1.2,1.2,0,0,0,.71.48,5.86,5.86,0,0,0,1.25.15v1.09h-8.59V42.22a4.8,4.8,0,0,0,1.24-.18,1.43,1.43,0,0,0,.74-.49,2.1,2.1,0,0,0,.35-1,10.58,10.58,0,0,0,.1-1.57V35.67q0-1.58-.05-2.6a10.7,10.7,0,0,0-.14-1.4,1.16,1.16,0,0,0-.61-.9,4.68,4.68,0,0,0-1.73-.22v-.93l6.33-1Zm-4-16a2.06,2.06,0,0,1,.61-1.51,2,2,0,0,1,1.49-.61,2.1,2.1,0,0,1,2.13,2.13,2,2,0,0,1-.61,1.49,2.06,2.06,0,0,1-1.51.61,2.09,2.09,0,0,1-2.1-2.1Z" transform="translate(-17.9 -20.46)"/><path class="cls-1" d="M268.19,40.36l1.29.11,1.06.12,1,.14,1.08.15a5.45,5.45,0,0,1,3.34,1.6,4.51,4.51,0,0,1,1.21,3.2,3.9,3.9,0,0,1-1.91,3.52,10.67,10.67,0,0,1-5.62,1.2,11.22,11.22,0,0,1-5.25-1,3.09,3.09,0,0,1-1.84-2.82,2.87,2.87,0,0,1,.74-2.14,2.54,2.54,0,0,1,1.85-.72,3.46,3.46,0,0,1,1.38.29,3,3,0,0,1,1.13.83,2,2,0,0,0-1.16.64,1.72,1.72,0,0,0-.45,1.19,1.85,1.85,0,0,0,1,1.68,5.58,5.58,0,0,0,2.85.59q4.09,0,4.09-2.59a2.28,2.28,0,0,0-.61-1.6,2.73,2.73,0,0,0-1.76-.8l-4.77-.65q-3-.41-3-2.7a2.45,2.45,0,0,1,.72-1.83,4,4,0,0,1,2.06-1v-.11a3.87,3.87,0,0,1-1.13-.68,5,5,0,0,1-.89-1,4.72,4.72,0,0,1-.79-2.62,4.35,4.35,0,0,1,.42-1.89,4.44,4.44,0,0,1,1.17-1.51,5.78,5.78,0,0,1,1.77-1,6.51,6.51,0,0,1,2.22-.37,7.54,7.54,0,0,1,2.29.35,5.92,5.92,0,0,1,1.91,1l1.09-.64a6.55,6.55,0,0,1,.86-.41,4.92,4.92,0,0,1,.72-.22,3.22,3.22,0,0,1,.65-.07,2.8,2.8,0,0,1,1.68.46,1.44,1.44,0,0,1,.64,1.23,1.3,1.3,0,0,1-.35.94,1.23,1.23,0,0,1-.93.37,1.09,1.09,0,0,1-.65-.18,3.92,3.92,0,0,1-.48-.41,4,4,0,0,0-.48-.41,1.1,1.1,0,0,0-.65-.18,1.41,1.41,0,0,0-1.09.74,3.24,3.24,0,0,1,.38,1,6.23,6.23,0,0,1,.11,1.24,5.4,5.4,0,0,1-.33,1.91,4.12,4.12,0,0,1-1,1.54A5.84,5.84,0,0,1,271.92,38a9.27,9.27,0,0,1-2.64.63,7,7,0,0,0-1.81.35.7.7,0,0,0-.5.65Q267,40.25,268.19,40.36ZM269.5,37a1.5,1.5,0,0,0,1.36-.93,5.61,5.61,0,0,0,.49-2.59,5.6,5.6,0,0,0-.49-2.6,1.52,1.52,0,0,0-1.39-.91,1.65,1.65,0,0,0-1.47.93,5,5,0,0,0-.55,2.54,5.19,5.19,0,0,0,.56,2.6A1.67,1.67,0,0,0,269.5,37Z" transform="translate(-17.9 -20.46)"/><path class="cls-1" d="M285.61,38.86a17.5,17.5,0,0,0,.07,1.76,2.14,2.14,0,0,0,.3,1,1.11,1.11,0,0,0,.71.45,8.67,8.67,0,0,0,1.3.16v1.09h-8.59V42.22a8.57,8.57,0,0,0,1.27-.16,1.26,1.26,0,0,0,.74-.44,1.89,1.89,0,0,0,.34-.93,12.75,12.75,0,0,0,.08-1.64V35.64q0-1.61-.05-2.6a9.59,9.59,0,0,0-.14-1.35,2.09,2.09,0,0,0-.22-.59.88.88,0,0,0-.41-.35,2.21,2.21,0,0,0-.68-.16q-.41,0-1,0v-.93l5.26-1,.35,2.4H285a6.38,6.38,0,0,1,2.13-1.77,5.85,5.85,0,0,1,2.7-.63,7.05,7.05,0,0,1,2.82.48,4.94,4.94,0,0,1,1.92,1.6,6.29,6.29,0,0,1,.82,1.62,8.47,8.47,0,0,1,.35,2.74v3.84a17.5,17.5,0,0,0,.07,1.76,2.15,2.15,0,0,0,.3,1,1.1,1.1,0,0,0,.69.45,8.18,8.18,0,0,0,1.25.16v1.09h-8.53V42.22a6.22,6.22,0,0,0,1.3-.15,1.26,1.26,0,0,0,.72-.45,2,2,0,0,0,.33-.94,12.72,12.72,0,0,0,.08-1.62V35.34A14.19,14.19,0,0,0,291.8,33a4.26,4.26,0,0,0-.53-1.54,2.12,2.12,0,0,0-1-.85,3.79,3.79,0,0,0-1.5-.26,2.36,2.36,0,0,0-1.5.49,4.19,4.19,0,0,0-1.09,1.36,5.68,5.68,0,0,0-.42,1.27,7.24,7.24,0,0,0-.18,1.62Z" transform="translate(-17.9 -20.46)"/><path class="cls-1" d="M300.74,43.31h-.85v-5H301a6.09,6.09,0,0,0,1.34,2.86,3,3,0,0,0,2.26.9,2.55,2.55,0,0,0,1.57-.42,1.37,1.37,0,0,0,.56-1.16,2.17,2.17,0,0,0-.68-1.49,8.83,8.83,0,0,0-2.21-1.54,9.88,9.88,0,0,1-3-2.22,3.85,3.85,0,0,1-.9-2.49,4.13,4.13,0,0,1,.34-1.68,4.25,4.25,0,0,1,.93-1.35,4.06,4.06,0,0,1,1.4-.89,4.91,4.91,0,0,1,1.77-.31,5.89,5.89,0,0,1,1.68.25,5,5,0,0,1,1.46.68l.49-.65h.71v4.12h-1.06a7,7,0,0,0-1.3-2.24A2.19,2.19,0,0,0,304.8,30a1.73,1.73,0,0,0-1.21.41,1.4,1.4,0,0,0-.45,1.09,2,2,0,0,0,.67,1.44,9.22,9.22,0,0,0,2.22,1.5,18.15,18.15,0,0,1,1.88,1.17,7.09,7.09,0,0,1,1.28,1.16,4.08,4.08,0,0,1,.72,1.23,4.28,4.28,0,0,1-.12,3.09,3.73,3.73,0,0,1-1,1.31,4.7,4.7,0,0,1-1.57.85,6.48,6.48,0,0,1-2,.3,7.32,7.32,0,0,1-2.18-.31,4.31,4.31,0,0,1-1.66-.91Z" transform="translate(-17.9 -20.46)"/><path class="cls-1" d="M53.52,43.47h-.87v-5h1.18a6.16,6.16,0,0,0,1.38,2.91,3.12,3.12,0,0,0,2.33.92,2.65,2.65,0,0,0,1.62-.43,1.39,1.39,0,0,0,.58-1.18,2.19,2.19,0,0,0-.7-1.51,9.1,9.1,0,0,0-2.27-1.57,10.17,10.17,0,0,1-3.06-2.26,3.88,3.88,0,0,1-.93-2.54,4.14,4.14,0,0,1,.35-1.71,4.3,4.3,0,0,1,1-1.37,4.19,4.19,0,0,1,1.45-.9,5.12,5.12,0,0,1,1.83-.32,6.15,6.15,0,0,1,1.73.25,5.22,5.22,0,0,1,1.5.69l.51-.67h.73v4.19H60.7a7.09,7.09,0,0,0-1.33-2.27A2.27,2.27,0,0,0,57.7,30a1.8,1.8,0,0,0-1.25.42A1.42,1.42,0,0,0,56,31.49,2.07,2.07,0,0,0,56.68,33,9.49,9.49,0,0,0,59,34.49a18.79,18.79,0,0,1,1.94,1.19,7.26,7.26,0,0,1,1.32,1.18A4.13,4.13,0,0,1,63,38.11a4.3,4.3,0,0,1-.13,3.15,3.79,3.79,0,0,1-1,1.33,4.87,4.87,0,0,1-1.61.86,6.77,6.77,0,0,1-2.09.3,7.62,7.62,0,0,1-2.25-.32,4.45,4.45,0,0,1-1.71-.93Z" transform="translate(-17.9 -20.46)"/><path class="cls-1" d="M73.87,34.1V32.94a3.81,3.81,0,0,0-.58-2.34,2.13,2.13,0,0,0-1.78-.73,1.66,1.66,0,0,0-1.24.43,4.05,4.05,0,0,0-.79,1.43,2.48,2.48,0,0,1-.72,1.08,1.93,1.93,0,0,1-1.28.39,1.53,1.53,0,0,1-1.21-.47,1.93,1.93,0,0,1-.42-1.33,2.35,2.35,0,0,1,1.47-2.11,9.89,9.89,0,0,1,4.45-.78q3.14,0,4.49,1.12a4.64,4.64,0,0,1,1.35,3.76v6.07q0,2.36,1,2.36a1.53,1.53,0,0,0,1-.36l.42.8a2.71,2.71,0,0,1-1.22,1.1,4.22,4.22,0,0,1-1.87.4,2.46,2.46,0,0,1-2-.78,3.24,3.24,0,0,1-.67-2.19h-.14A5.7,5.7,0,0,1,72,43a5.77,5.77,0,0,1-2.95.75,4,4,0,0,1-2.84-1,3.33,3.33,0,0,1-1.07-2.56,3.17,3.17,0,0,1,1.09-2.29,11.46,11.46,0,0,1,3.65-2.09Zm0,1.47a18.9,18.9,0,0,0-3.55,2,2.46,2.46,0,0,0-1.19,1.87,1.77,1.77,0,0,0,.45,1.28,1.48,1.48,0,0,0,1.12.47A3.37,3.37,0,0,0,72,40.91a3.25,3.25,0,0,0,1-.62,2.76,2.76,0,0,0,.66-.93,2.82,2.82,0,0,0,.24-1.15Z" transform="translate(-17.9 -20.46)"/><path class="cls-1" d="M87.58,39.18a11.56,11.56,0,0,0,.1,1.71,1.78,1.78,0,0,0,.41,1,1.52,1.52,0,0,0,.9.43,10.09,10.09,0,0,0,1.57.1v1.11H81.17V42.36a9.43,9.43,0,0,0,1.35-.17,1.25,1.25,0,0,0,.76-.44,1.93,1.93,0,0,0,.32-1,15.83,15.83,0,0,0,.07-1.68V35.74q0-1.72-.08-2.75a4.4,4.4,0,0,0-.36-1.58,1.41,1.41,0,0,0-.8-.73,4.26,4.26,0,0,0-1.36-.18v-1l5.62-1,.45,3.19h.11a6.28,6.28,0,0,1,2-2.33,4.5,4.5,0,0,1,2.61-.86,2.75,2.75,0,0,1,1.74.53,1.62,1.62,0,0,1,.67,1.33,2.23,2.23,0,0,1-.52,1.5,1.76,1.76,0,0,1-1.42.61,1.69,1.69,0,0,1-.76-.17,3.47,3.47,0,0,1-.6-.37l-.53-.39a1,1,0,0,0-.55-.18,1.3,1.3,0,0,0-1,.69,6,6,0,0,0-.79,1.86,14.76,14.76,0,0,0-.36,1.87,15.41,15.41,0,0,0-.14,2.07Z" transform="translate(-17.9 -20.46)"/><path class="cls-1" d="M104,34.1V32.94a3.81,3.81,0,0,0-.58-2.34,2.13,2.13,0,0,0-1.78-.73,1.66,1.66,0,0,0-1.24.43,4.05,4.05,0,0,0-.79,1.43,2.48,2.48,0,0,1-.72,1.08,1.93,1.93,0,0,1-1.28.39,1.53,1.53,0,0,1-1.21-.47A1.93,1.93,0,0,1,96,31.38a2.35,2.35,0,0,1,1.47-2.11,9.89,9.89,0,0,1,4.45-.78q3.14,0,4.49,1.12a4.64,4.64,0,0,1,1.35,3.76v6.07q0,2.36,1,2.36a1.53,1.53,0,0,0,1-.36l.42.8a2.71,2.71,0,0,1-1.22,1.1,4.22,4.22,0,0,1-1.87.4,2.46,2.46,0,0,1-2-.78,3.24,3.24,0,0,1-.67-2.19h-.14A5.7,5.7,0,0,1,102.12,43a5.77,5.77,0,0,1-2.95.75,4,4,0,0,1-2.84-1,3.33,3.33,0,0,1-1.07-2.56,3.17,3.17,0,0,1,1.09-2.29A11.46,11.46,0,0,1,100,35.79Zm0,1.47a18.9,18.9,0,0,0-3.55,2,2.46,2.46,0,0,0-1.19,1.87,1.77,1.77,0,0,0,.45,1.28,1.48,1.48,0,0,0,1.12.47,3.37,3.37,0,0,0,1.26-.24,3.25,3.25,0,0,0,1-.62,2.76,2.76,0,0,0,.66-.93A2.82,2.82,0,0,0,104,38.2Z" transform="translate(-17.9 -20.46)"/><path class="cls-1" d="M117.28,38.93a17.53,17.53,0,0,0,.07,1.79,2.27,2.27,0,0,0,.31,1,1.13,1.13,0,0,0,.73.47,9,9,0,0,0,1.33.17v1.11h-8.84V42.36a9.46,9.46,0,0,0,1.35-.17,1.24,1.24,0,0,0,.76-.44,1.93,1.93,0,0,0,.32-1,16,16,0,0,0,.07-1.68V27.72q0-1.66,0-2.62a8.83,8.83,0,0,0-.15-1.46,2.34,2.34,0,0,0-.2-.57.81.81,0,0,0-.35-.33,1.82,1.82,0,0,0-.65-.17q-.41,0-1,0v-1l6.26-1.05V30.69h.11a5.54,5.54,0,0,1,2-1.66,5.89,5.89,0,0,1,2.6-.53,5.48,5.48,0,0,1,4.27,1.66,6.14,6.14,0,0,1,1.15,2,7.23,7.23,0,0,1,.42,2.45v4.3q0,1.16.06,1.82a2.07,2.07,0,0,0,.3,1,1.14,1.14,0,0,0,.72.46,8.65,8.65,0,0,0,1.32.17v1.11h-8.79V42.36a6.51,6.51,0,0,0,1.33-.15,1.37,1.37,0,0,0,.76-.46,1.85,1.85,0,0,0,.34-1,15.83,15.83,0,0,0,.07-1.68V35.71a9.6,9.6,0,0,0-.65-4.16A2.3,2.3,0,0,0,121,30.33a3.24,3.24,0,0,0-2.67,1.22,4.78,4.78,0,0,0-.74,1.58,7.7,7.7,0,0,0-.27,2.11Z" transform="translate(-17.9 -20.46)"/><path class="cls-1" d="M28.58,34.49" transform="translate(-17.9 -20.46)"/><path class="cls-1" d="M33.07,47.56h0a4.26,4.26,0,0,1-4.26-4.26,4.82,4.82,0,0,1,1.44-3.18L31.38,39l-.66-.66-.5-.49h0l-5.08-5.08a4,4,0,0,1,5.64-5.64L33,29.32l2.26-2.25a4,4,0,0,1,5.64,5.64L38.69,35l4.54,4.55a1.18,1.18,0,0,1-1.66,1.66L37,36.63,35.86,37.8l-.37.39,0,0-.75.75,1.17,1.17a4.82,4.82,0,0,1,1.44,3.18A4.26,4.26,0,0,1,33.07,47.56Zm0-6.94-1.18,1.18,0,0a2.49,2.49,0,0,0-.72,1.49,1.91,1.91,0,0,0,1.9,1.9h0A1.91,1.91,0,0,0,35,43.3a2.5,2.5,0,0,0-.73-1.5h0Zm-1.18-4.49.5.49h0l.67.67.75-.75.37-.39,0,0L35.36,35l-1-1-.06,0-.09-.08L33,32.65,30.7,35Zm3.94-4,.06,0,.09.08L37,33.3l2.24-2.24a1.64,1.64,0,1,0-2.32-2.32L34.69,31ZM28,28.25A1.64,1.64,0,0,0,26.8,31L29,33.29,31.36,31l-2.25-2.25A1.63,1.63,0,0,0,28,28.25Z" transform="translate(-17.9 -20.46)"/><path class="cls-1" d="M23.68,41.52a1.18,1.18,0,0,1-.83-2l3-3a1.18,1.18,0,0,1,1.66,1.66l-3,3A1.17,1.17,0,0,1,23.68,41.52Z" transform="translate(-17.9 -20.46)"/><path class="cls-1" d="M46.91,36.15a1.17,1.17,0,0,1-.43-.08l-3.81-1.52a1.18,1.18,0,1,1,.87-2.19l3.81,1.52a1.18,1.18,0,0,1-.43,2.27Z" transform="translate(-17.9 -20.46)"/><path class="cls-1" d="M19.08,36.15a1.18,1.18,0,0,1-.44-2.27l3.81-1.52a1.18,1.18,0,1,1,.87,2.19l-3.81,1.52A1.17,1.17,0,0,1,19.08,36.15Z" transform="translate(-17.9 -20.46)"/><path class="cls-1" d="M145.59,39.17a11.62,11.62,0,0,0,.1,1.71,1.79,1.79,0,0,0,.4,1,1.49,1.49,0,0,0,.89.43,9.87,9.87,0,0,0,1.55.1v1.11h-9.26V42.36a9.18,9.18,0,0,0,1.33-.17,1.23,1.23,0,0,0,.75-.44,1.94,1.94,0,0,0,.32-1,16,16,0,0,0,.07-1.68V35.74q0-1.72-.08-2.75a4.44,4.44,0,0,0-.36-1.58,1.39,1.39,0,0,0-.79-.73,4.15,4.15,0,0,0-1.34-.18v-1l5.55-1,.44,3.19h.11a6.26,6.26,0,0,1,2-2.33,4.41,4.41,0,0,1,2.58-.86,2.69,2.69,0,0,1,1.72.53,1.63,1.63,0,0,1,.67,1.33,2.25,2.25,0,0,1-.51,1.5,1.73,1.73,0,0,1-1.4.61,1.65,1.65,0,0,1-.75-.17,3.42,3.42,0,0,1-.6-.37l-.53-.39a1,1,0,0,0-.54-.18,1.28,1.28,0,0,0-1,.69,6,6,0,0,0-.78,1.86,14.85,14.85,0,0,0-.36,1.87,15.6,15.6,0,0,0-.14,2.07Z" transform="translate(-17.9 -20.46)"/><path class="cls-1" d="M161.2,28.5a8.73,8.73,0,0,1,3.15.57A8.43,8.43,0,0,1,167,30.63,7.38,7.38,0,0,1,168.73,33a6.93,6.93,0,0,1,.65,3,7.34,7.34,0,0,1-.65,3.11A7.55,7.55,0,0,1,167,41.56a8.34,8.34,0,0,1-2.61,1.61,8.78,8.78,0,0,1-6.25,0,8,8,0,0,1-2.58-1.59,7.43,7.43,0,0,1-1.75-2.45,7.56,7.56,0,0,1-.64-3.12,7.15,7.15,0,0,1,.64-3,7.25,7.25,0,0,1,1.75-2.38,8.07,8.07,0,0,1,2.58-1.55A8.72,8.72,0,0,1,161.2,28.5Zm0,1.61a2.84,2.84,0,0,0-1.53.43,3.68,3.68,0,0,0-1.18,1.21,6.29,6.29,0,0,0-.75,1.87,10.37,10.37,0,0,0-.26,2.43,10.81,10.81,0,0,0,.26,2.5,6.27,6.27,0,0,0,.75,1.89,3.74,3.74,0,0,0,1.16,1.21,2.82,2.82,0,0,0,1.54.43,3,3,0,0,0,1.57-.43A3.71,3.71,0,0,0,164,40.41a6.49,6.49,0,0,0,.78-1.9A10.21,10.21,0,0,0,165,36a9.75,9.75,0,0,0-.28-2.41,6.52,6.52,0,0,0-.78-1.87,3.71,3.71,0,0,0-1.21-1.22A3,3,0,0,0,161.2,30.11Z" transform="translate(-17.9 -20.46)"/><path class="cls-1" d="M172.76,43.47h-.86v-5h1.16a6.19,6.19,0,0,0,1.36,2.91,3.06,3.06,0,0,0,2.3.92,2.59,2.59,0,0,0,1.59-.43,1.4,1.4,0,0,0,.57-1.18,2.21,2.21,0,0,0-.69-1.51A9,9,0,0,0,176,37.57a10.06,10.06,0,0,1-3-2.26,3.91,3.91,0,0,1-.92-2.54,4.19,4.19,0,0,1,.35-1.71,4.32,4.32,0,0,1,.94-1.37,4.13,4.13,0,0,1,1.43-.9,5,5,0,0,1,1.8-.32,6,6,0,0,1,1.71.25,5.13,5.13,0,0,1,1.48.69l.5-.67h.72v4.19h-1.08a7.09,7.09,0,0,0-1.32-2.27A2.22,2.22,0,0,0,176.9,30a1.76,1.76,0,0,0-1.23.42,1.43,1.43,0,0,0-.46,1.11,2.08,2.08,0,0,0,.68,1.47,9.38,9.38,0,0,0,2.26,1.53,18.53,18.53,0,0,1,1.91,1.19,7.2,7.2,0,0,1,1.3,1.18,4.15,4.15,0,0,1,.73,1.25,4.35,4.35,0,0,1-.12,3.15,3.8,3.8,0,0,1-1,1.33,4.79,4.79,0,0,1-1.59.86,6.6,6.6,0,0,1-2.07.31,7.45,7.45,0,0,1-2.22-.32,4.38,4.38,0,0,1-1.69-.93Z" transform="translate(-17.9 -20.46)"/><path class="cls-1" d="M185.69,43.47h-.86v-5H186a6.19,6.19,0,0,0,1.36,2.91,3.06,3.06,0,0,0,2.3.92,2.59,2.59,0,0,0,1.59-.43,1.4,1.4,0,0,0,.57-1.18,2.21,2.21,0,0,0-.69-1.51,9,9,0,0,0-2.25-1.57,10.06,10.06,0,0,1-3-2.26,3.91,3.91,0,0,1-.92-2.54,4.19,4.19,0,0,1,.35-1.71,4.32,4.32,0,0,1,.94-1.37,4.13,4.13,0,0,1,1.43-.9,5,5,0,0,1,1.8-.32,6,6,0,0,1,1.71.25,5.13,5.13,0,0,1,1.48.69l.5-.67h.72v4.19h-1.08a7.09,7.09,0,0,0-1.32-2.27,2.22,2.22,0,0,0-1.65-.69,1.76,1.76,0,0,0-1.23.42,1.43,1.43,0,0,0-.46,1.11,2.08,2.08,0,0,0,.68,1.47,9.38,9.38,0,0,0,2.26,1.53A18.53,18.53,0,0,1,193,35.68a7.2,7.2,0,0,1,1.3,1.18,4.15,4.15,0,0,1,.73,1.25,4.35,4.35,0,0,1-.12,3.15,3.8,3.8,0,0,1-1,1.33,4.79,4.79,0,0,1-1.59.86,6.6,6.6,0,0,1-2.07.31,7.45,7.45,0,0,1-2.22-.32,4.38,4.38,0,0,1-1.69-.93Z" transform="translate(-17.9 -20.46)"/><circle class="cls-1" cx="116.59" cy="14.6" r="2.18"/><circle class="cls-1" cx="182.71" cy="14.6" r="2.18"/></svg>